<svg width="105" height="13" viewBox="0 0 105 13" fill="none" xmlns="http://www.w3.org/2000/svg">
<path d="M10.9318 0.363636H7.88636V4.90909H6.77273L4.43182 0.363636H0.522727L4.04545 5.81818L0.477273 12H4.27273L6.36364 7.81818H7.88636V12H10.9318V7.81818H12.5227L14.5227 12H18.3409L14.8864 5.77273L18.25 0.363636H14.3636L12.1364 4.90909H10.9318V0.363636ZM26.733 12H30.6989L26.017 5.95455L30.4489 0.363636H26.4716L23.1307 4.75H22.7216V0.363636H19.5625V12H22.7216V7.29545H23.1648L26.733 12ZM34.7344 12H40.2116C42.7401 12 44.3026 10.6193 44.3026 8.70455C44.3026 7.0625 43.0923 5.98864 41.598 5.93182V5.81818C42.9446 5.55114 43.848 4.55682 43.848 3.27273C43.848 1.5 42.4389 0.363636 39.7798 0.363636H34.7344V12ZM37.8935 9.47727V7.02273H39.4162C40.3764 7.02273 40.9616 7.47727 40.9616 8.29545C40.9616 9.07386 40.4332 9.47727 39.3707 9.47727H37.8935ZM37.8935 5.06818V2.84091H39.2344C40.0185 2.84091 40.598 3.23864 40.598 3.95455C40.598 4.67045 40.0185 5.06818 39.1889 5.06818H37.8935ZM56.6946 6.18182C56.6946 2.29545 54.1946 0.204545 51.0355 0.204545C47.8537 0.204545 45.3764 2.29545 45.3764 6.18182C45.3764 10.0455 47.8537 12.1591 51.0355 12.1591C54.1946 12.1591 56.6946 10.0682 56.6946 6.18182ZM53.4446 6.18182C53.4446 8.27273 52.6037 9.40909 51.0355 9.40909C49.4673 9.40909 48.6264 8.27273 48.6264 6.18182C48.6264 4.09091 49.4673 2.95455 51.0355 2.95455C52.6037 2.95455 53.4446 4.09091 53.4446 6.18182ZM69.0199 4.72727C68.7699 1.84091 66.6562 0.204545 63.7244 0.204545C60.5881 0.204545 58.1108 2.29545 58.1108 6.18182C58.1108 10.0511 60.5199 12.1591 63.7244 12.1591C67.1335 12.1591 68.8608 9.79545 69.0199 7.81818L65.8153 7.79545C65.6562 8.78977 64.9517 9.40909 63.7926 9.40909C62.2528 9.40909 61.3608 8.31818 61.3608 6.18182C61.3608 4.15909 62.2244 2.95455 63.8153 2.95455C65.0312 2.95455 65.7244 3.67045 65.8153 4.72727H69.0199ZM70.1349 2.90909H73.6349V12H76.7486V2.90909H80.2486V0.363636H70.1349V2.90909ZM92.1634 6.18182C92.1634 2.29545 89.6634 0.204545 86.5043 0.204545C83.3224 0.204545 80.8452 2.29545 80.8452 6.18182C80.8452 10.0455 83.3224 12.1591 86.5043 12.1591C89.6634 12.1591 92.1634 10.0682 92.1634 6.18182ZM88.9134 6.18182C88.9134 8.27273 88.0724 9.40909 86.5043 9.40909C84.9361 9.40909 84.0952 8.27273 84.0952 6.18182C84.0952 4.09091 84.9361 2.95455 86.5043 2.95455C88.0724 2.95455 88.9134 4.09091 88.9134 6.18182ZM100.795 12H104.761L100.08 5.95455L104.511 0.363636H100.534L97.1932 4.75H96.7841V0.363636H93.625V12H96.7841V7.29545H97.2273L100.795 12Z" fill="black"/>
</svg>
